<svg xmlns="http://www.w3.org/2000/svg" viewBox="0 0 814 1000" role="img" aria-label="Apple">
  <path fill="#000000" d="M788.1 340.9c-5.8 4.5-108.2 61.8-108.2 189.2 0 147.4 130.3 199.5 134.2 200.8-.6 3.2-20.7 71.1-68.7 140.3-42.8 60.8-87.5 121.5-155.5 121.5s-85.5-39-164.1-39c-76.5 0-103.6 40.3-165.9 40.3s-105.6-56.3-155.5-125.4C46.7 790.7 0 669.8 0 555.1 0 371.1 120.5 273.4 239 273.4c63 0 115.5 41 155.5 41 38.1 0 97.5-43.5 170.1-43.5 27.5 0 126.3 2.6 223.5 70zM554.1 192.6c30.1-35.2 51.4-84.1 51.4-133S583.8 0 582.5 0c-28.2 1.3-61.7 18.6-81.8 41.7-25.6 28.8-49.5 75-49.5 120.9 0 52.9 40.7 54.2 42 54.2 1.3 0 36.3-.6 60.9-24.2z"/>
</svg>
